<?xml version="1.0" encoding="utf-8"?>
<!-- Generator: Adobe Illustrator 15.0.0, SVG Export Plug-In . SVG Version: 6.00 Build 0)  -->
<!DOCTYPE svg PUBLIC "-//W3C//DTD SVG 1.1//EN" "http://www.w3.org/Graphics/SVG/1.1/DTD/svg11.dtd">
<svg version="1.1" id="图层_1" xmlns="http://www.w3.org/2000/svg" xmlns:xlink="http://www.w3.org/1999/xlink" x="0px" y="0px"
	 width="313.68px" height="100.74px" viewBox="0 0 313.68 100.74" enable-background="new 0 0 313.68 100.74" xml:space="preserve">
<g>
	<g>
		<path fill="#C8161E" d="M0,101.343V16.434C0.016,7.639,6.91,0.011,16.08,0l0,0h10.297v1.173v1.175L16.08,2.345
			C8.375,2.362,2.42,8.81,2.41,16.434l0,0v82.563h85.23c7.77-0.016,14.058-6.133,14.072-13.697l0,0V2.349H26.377V1.173V0h77.747
			v85.3c0,8.86-7.379,16.043-16.483,16.043l0,0H0L0,101.343z"/>
	</g>
	<g>
		<polygon fill="#C8161E" points="26.087,22.678 11.904,87.607 26.119,87.607 31.875,61.253 55.45,61.253 49.693,87.607 
			64.728,87.607 78.91,22.678 63.875,22.678 58.508,47.258 34.931,47.258 40.302,22.678 		"/>
		<g>
			<path fill="#C8161E" d="M40.496,43.792l5.378-24.62H30.99v-1.563h16.866l-5.376,24.617l13.437,0.001v1.564H40.496L40.496,43.792z
				 M30.99,19.172L30.99,19.172L30.99,19.172L30.99,19.172z"/>
		</g>
		<g>
			<polygon fill="#C8161E" points="70.065,83.782 84.177,19.173 66.77,19.173 66.77,17.609 86.16,17.609 71.638,84.104 
				70.065,83.782 			"/>
		</g>
		<g>
			<polygon fill="#C8161E" points="31.503,84.961 36.029,64.246 37.6,64.568 33.075,85.286 31.503,84.961 			"/>
		</g>
		<g>
			<path fill="#C8161E" d="M46.554,39.062l5.378-24.619H37.049v-1.566h16.869l-5.377,24.619h9.388v1.567H46.554L46.554,39.062z
				 M37.049,14.443v0.002V14.443L37.049,14.443z"/>
		</g>
		<g>
			<polygon fill="#C8161E" points="76.125,79.049 90.233,14.445 72.83,14.445 72.83,12.876 92.221,12.876 77.695,79.375 
				76.125,79.049 			"/>
		</g>
		<g>
			<polygon fill="#C8161E" points="36.668,80.883 40.55,63.12 42.122,63.446 38.243,81.208 36.668,80.883 			"/>
		</g>
	</g>
</g>
<g>
	<g>
		<path d="M139.465,29.726l-5.796-2.425c-1.686-0.681-2.703-1.285-3.051-1.811c-0.349-0.528-0.511-1.025-0.48-1.496
			c0.029-0.514,0.275-0.949,0.741-1.301c0.467-0.352,1.061-0.563,1.787-0.633c0.669-0.047,1.365,0.036,2.091,0.247
			c0.726,0.21,3.181,1.173,7.365,2.881c4.185,1.712,6.611,2.932,7.281,3.658c0.666,0.728,0.963,1.407,0.893,2.039
			c-0.073,0.635-0.422,1.121-1.046,1.459c-0.628,0.34-1.475,0.417-2.55,0.229C146.203,32.504,143.792,31.555,139.465,29.726z
			 M146.219,39.361c0.582-0.187,1.438-0.127,2.572,0.175c1.13,0.305,1.437,1.476,0.911,3.517c-0.315,1.172-1.32,3.282-3.004,6.329
			l-3.006,5.662c-0.76,1.312-1.977,3.253-3.663,5.819c-1.684,2.565-3.114,3.873-4.291,3.921c-1.177,0.047-2.037-0.122-2.572-0.51
			c-0.537-0.388-0.858-0.894-0.959-1.513c-0.103-0.621,0.153-1.459,0.764-2.515c0.321-0.586,1.657-2.672,4.007-6.257
			c2.356-3.588,3.996-6.565,4.926-8.933c0.93-2.369,1.75-3.861,2.461-4.484C145.077,39.954,145.694,39.549,146.219,39.361z
			 M141.775,5.428l5.401,4.009c1.976,1.431,3.27,2.631,3.877,3.604c0.612,0.974,0.78,1.759,0.5,2.355
			c-0.276,0.598-0.672,1.008-1.196,1.232c-0.523,0.222-1.102,0.286-1.745,0.192c-0.754-0.093-1.596-0.48-2.528-1.16l-4.442-3.586
			l-4.708-3.516c-0.872-0.704-1.372-1.395-1.504-2.074c-0.13-0.68,0.051-1.22,0.546-1.618c0.491-0.398,1.047-0.644,1.655-0.739
			C138.856,3.987,140.233,4.421,141.775,5.428z M158.377,57.703V11.769c0-0.986,0.201-1.896,0.601-2.729
			c0.399-0.834,1.087-1.585,2.063-2.254c0.976-0.671,2.862-1.017,5.657-1.041h39.568c1.105,0,2.04,0.3,2.813,0.902
			c0.771,0.603,1.138,1.269,1.109,1.999c-0.056,0.685-0.447,1.281-1.174,1.788c-0.727,0.507-1.643,0.762-2.748,0.762h-35.905
			c-2.415,0-3.784,0.14-4.122,0.421c-0.334,0.281-0.564,0.657-0.694,1.126c-0.132,0.469-0.198,1.113-0.198,1.934v40.542
			c0,0.82,0.108,1.535,0.328,2.146c0.219,0.61,0.529,1.062,0.937,1.353c0.408,0.294,1.654,0.441,3.75,0.441h37.172
			c1.249,0,2.25,0.318,3.008,0.96c0.755,0.641,1.071,1.323,0.956,2.043c-0.115,0.724-0.545,1.318-1.284,1.783
			c-0.742,0.465-1.637,0.686-2.68,0.664h-39.396c-4.494,0-7.244-0.811-8.253-2.433C158.881,60.556,158.377,59.064,158.377,57.703z"
			/>
	</g>
	<g>
		<path d="M270.395,48.713V65.24c0,0.775-0.317,1.447-0.939,2.023c-0.624,0.573-1.439,0.902-2.44,0.984
			c-1.003,0.082-1.911-0.188-2.728-0.81c-0.811-0.62-1.219-1.354-1.219-2.198V48.713h-24.562c-3.962,0-6.467-0.556-7.521-1.669
			c-1.054-1.113-1.674-2.144-1.862-3.095c-0.188-0.949-0.283-2.009-0.283-3.183V19.387c0-1.617,0.21-2.982,0.631-4.095
			c0.419-1.114,1.123-2,2.121-2.657c0.994-0.654,2.084-1.071,3.249-1.247c1.171-0.176,2.635-0.264,4.396-0.264h23.831V2.862
			c0-0.68,0.314-1.302,0.938-1.865c0.629-0.562,1.473-0.873,2.528-0.932c1.059-0.058,1.971,0.195,2.724,0.756
			c0.756,0.563,1.137,1.243,1.137,2.041v8.263h25.627c4.832,0,7.655,0.867,8.466,2.602c0.813,1.736,1.218,3.458,1.218,5.169v20.887
			c0,3.045-0.799,5.297-2.389,6.75c-1.593,1.453-4.633,2.179-9.124,2.179H270.395z M263.068,42.947V16.891h-21.515
			c-2.23,0.024-3.592,0.125-4.086,0.3c-0.491,0.175-0.908,0.538-1.237,1.088c-0.335,0.551-0.487,1.633-0.457,3.249v16.855
			c0,1.756,0.094,2.863,0.281,3.318c0.188,0.456,0.538,0.779,1.046,0.967c0.507,0.187,1.663,0.28,3.463,0.28H263.068z
			 M270.395,16.891v26.057h22.274c1.705,0,2.919-0.093,3.634-0.28c0.725-0.187,1.249-0.532,1.581-1.035s0.498-1.42,0.498-2.753
			V20.083c0-1.029-0.175-1.754-0.518-2.174c-0.348-0.421-0.811-0.696-1.384-0.824c-0.578-0.129-1.575-0.194-2.987-0.194H270.395z"/>
	</g>
	<g>
		<path d="M140.14,88.215h-15.783v11.148c-0.013,0.373-0.108,0.749-0.285,1.123c-0.179,0.375-0.55,0.561-1.114,0.553
			c-0.565-0.005-0.953-0.174-1.17-0.507c-0.215-0.335-0.323-0.725-0.323-1.169V76.548c0-0.645,0.157-1.096,0.467-1.354
			c0.311-0.256,0.678-0.362,1.099-0.317c0.386,0.062,0.701,0.244,0.942,0.555c0.244,0.312,0.371,0.694,0.384,1.15v8.911h15.783
			v-8.98c0-0.434,0.078-0.815,0.228-1.143c0.149-0.327,0.471-0.523,0.97-0.588c0.496-0.065,0.86,0.094,1.094,0.475
			c0.228,0.382,0.347,0.799,0.347,1.256v22.852c0,0.49-0.089,0.918-0.26,1.273c-0.175,0.356-0.555,0.524-1.145,0.501
			c-0.453-0.012-0.771-0.166-0.956-0.458c-0.185-0.293-0.278-0.729-0.278-1.316V88.215z"/>
		<path d="M166.038,76.283c0.015-0.433,0.098-0.779,0.255-1.038c0.16-0.256,0.497-0.399,1.007-0.43
			c0.511-0.029,0.913,0.095,1.196,0.369c0.288,0.275,0.43,0.636,0.43,1.08v14.499c0,1.104-0.083,2.123-0.253,3.063
			c-0.166,0.935-0.442,1.755-0.819,2.459c-0.381,0.704-0.901,1.367-1.571,1.996c-0.666,0.625-1.441,1.133-2.326,1.521
			c-0.885,0.388-1.996,0.662-3.337,0.825c-1.344,0.162-2.639,0.203-3.887,0.123c-0.987-0.061-1.97-0.202-2.951-0.432
			c-0.981-0.229-1.912-0.607-2.789-1.133c-0.879-0.527-1.625-1.209-2.236-2.04c-0.615-0.831-1.024-1.684-1.227-2.557
			c-0.209-0.872-0.309-2.037-0.309-3.491V76.618c0-0.705,0.105-1.185,0.321-1.442c0.21-0.258,0.567-0.403,1.067-0.439
			c0.504-0.034,0.878,0.109,1.126,0.431c0.251,0.321,0.374,0.806,0.374,1.451v14.146c0,1.389,0.145,2.486,0.432,3.31
			c0.288,0.818,0.691,1.501,1.217,2.044c0.518,0.546,1.134,0.971,1.84,1.269c0.709,0.298,1.641,0.519,2.796,0.66
			c1.157,0.137,2.17,0.173,3.046,0.103c0.957-0.057,1.946-0.272,2.959-0.642c1.009-0.368,1.775-0.889,2.3-1.561
			c0.52-0.679,0.872-1.485,1.048-2.428c0.183-0.943,0.278-1.942,0.291-2.999V76.283z"/>
		<path d="M176.114,99.15c0,0.398-0.093,0.783-0.276,1.153c-0.185,0.368-0.514,0.592-0.985,0.667
			c-0.47,0.076-0.864-0.057-1.169-0.396c-0.307-0.339-0.461-0.792-0.461-1.354V76.563l0.407-1.28l1.049-0.476l1.252,0.86
			l0.184,0.968V99.15z"/>
		<path d="M182.235,100.752c-0.722,0.058-1.275-0.019-1.66-0.229c-0.386-0.21-0.607-0.589-0.66-1.131
			c-0.051-0.545,0.066-1.013,0.353-1.404c0.287-0.394,0.921-1.099,1.896-2.115l14.177-14.793l0.813-0.896
			c0.808-0.761,1.185-1.264,1.136-1.51c-0.047-0.246-0.164-0.425-0.352-0.534c-0.187-0.112-0.716-0.167-1.597-0.167h-14.374
			c-0.569,0.011-1.006-0.089-1.317-0.303c-0.314-0.21-0.517-0.547-0.607-1.007c-0.091-0.461,0.058-0.811,0.452-1.053
			c0.392-0.243,0.937-0.364,1.634-0.364h16.865c0.884,0,1.568,0.128,2.062,0.378c0.492,0.255,0.849,0.678,1.067,1.27
			c0.215,0.593,0.148,1.214-0.21,1.867c-0.354,0.65-0.917,1.375-1.688,2.173l-13.852,14.471l-1.209,1.372
			c-0.437,0.448-0.622,0.752-0.564,0.918c0.051,0.196,0.19,0.33,0.419,0.395c0.229,0.064,0.858,0.095,1.897,0.095h15.583
			c0.29,0,0.596,0.08,0.923,0.238c0.326,0.156,0.525,0.436,0.604,0.836c0.075,0.403-0.039,0.752-0.354,1.049
			c-0.311,0.297-0.702,0.446-1.174,0.446H182.235z"/>
		<path d="M227.045,88.215h-15.787v11.148c-0.009,0.373-0.104,0.749-0.283,1.123c-0.177,0.375-0.549,0.561-1.116,0.553
			c-0.564-0.005-0.954-0.174-1.165-0.507c-0.215-0.335-0.323-0.725-0.323-1.169V76.548c0-0.645,0.155-1.096,0.466-1.354
			c0.308-0.256,0.677-0.362,1.1-0.317c0.384,0.062,0.7,0.244,0.939,0.555c0.246,0.312,0.374,0.694,0.383,1.15v8.911h15.787v-8.98
			c0-0.434,0.073-0.815,0.224-1.143s0.476-0.523,0.972-0.588c0.494-0.065,0.861,0.094,1.092,0.475
			c0.229,0.382,0.348,0.799,0.348,1.256v22.852c0,0.49-0.086,0.918-0.261,1.273c-0.171,0.356-0.554,0.524-1.146,0.501
			c-0.449-0.012-0.769-0.166-0.952-0.458c-0.186-0.293-0.276-0.729-0.276-1.316V88.215z"/>
		<path d="M246.819,74.684c0.973-0.034,1.939,0.021,2.896,0.168c0.957,0.146,2.033,0.5,3.225,1.062
			c1.191,0.563,2.183,1.251,2.979,2.065c0.799,0.816,1.468,1.715,2.021,2.7c0.556,0.984,0.972,1.998,1.244,3.04
			c0.279,1.044,0.421,2.348,0.428,3.911s-0.106,2.903-0.335,4.017c-0.323,1.525-0.828,2.801-1.508,3.841
			c-0.678,1.035-1.401,1.872-2.165,2.504c-0.765,0.634-1.491,1.141-2.177,1.521c-0.687,0.379-1.467,0.713-2.339,1.001
			s-1.792,0.49-2.757,0.605c-0.961,0.119-2.086,0.107-3.375-0.035c-1.782-0.174-3.204-0.51-4.263-1.01s-2.051-1.154-2.979-1.968
			c-0.926-0.813-1.623-1.647-2.095-2.498c-0.47-0.847-0.828-1.751-1.076-2.708c-0.246-0.953-0.412-1.97-0.496-3.048
			c-0.084-1.076-0.084-2.138,0-3.182c0.098-1.216,0.288-2.306,0.578-3.27c0.29-0.96,0.598-1.758,0.923-2.389
			c0.323-0.633,0.771-1.3,1.343-1.997c0.573-0.695,1.171-1.295,1.791-1.791c0.618-0.498,1.335-0.945,2.146-1.346
			c0.815-0.397,1.812-0.688,2.992-0.869C244.999,74.827,246,74.719,246.819,74.684z M246.688,98.326
			c1.088-0.024,2.192-0.203,3.324-0.537c1.132-0.335,2.079-0.789,2.843-1.362c0.767-0.572,1.436-1.318,1.998-2.231
			c0.566-0.914,0.965-1.825,1.202-2.734c0.234-0.907,0.363-1.929,0.388-3.058c0.024-1.131-0.1-2.357-0.361-3.684
			c-0.217-1.009-0.524-1.934-0.93-2.777c-0.405-0.842-0.97-1.582-1.696-2.215c-0.729-0.633-1.471-1.118-2.224-1.458
			c-0.75-0.339-1.506-0.564-2.254-0.677c-0.758-0.112-1.583-0.144-2.487-0.098c-1.372,0.084-2.61,0.31-3.711,0.679
			c-1.103,0.368-2.013,0.866-2.734,1.493c-0.723,0.627-1.315,1.434-1.77,2.418c-0.459,0.982-0.795,2.098-1.003,3.338
			c-0.213,1.242-0.306,2.362-0.279,3.357c0.011,0.995,0.137,1.995,0.388,2.999c0.248,1,0.6,1.869,1.064,2.609
			c0.461,0.737,1.125,1.444,1.986,2.117c0.859,0.675,1.867,1.153,3.017,1.442C244.599,98.235,245.677,98.361,246.688,98.326z"/>
		<path d="M267.008,80.572v18.825c0,0.446-0.121,0.783-0.365,1.011c-0.236,0.229-0.587,0.351-1.045,0.371
			c-0.452,0.015-0.819-0.101-1.083-0.354c-0.261-0.252-0.396-0.596-0.396-1.027v-20.6c0-0.575,0.009-1.155,0.027-1.74
			c0.02-0.587,0.11-1.047,0.27-1.381c0.162-0.333,0.423-0.524,0.786-0.572c0.359-0.046,0.73,0.071,1.116,0.353
			c0.217,0.175,0.634,0.637,1.251,1.381c0.62,0.743,0.945,1.128,0.983,1.15l14.184,16.805V76.477
			c-0.009-0.586,0.115-1.022,0.381-1.31c0.264-0.287,0.631-0.407,1.109-0.359c0.313,0.034,0.624,0.194,0.935,0.483
			c0.312,0.287,0.467,0.693,0.467,1.221v21.953c0,0.6-0.049,1.059-0.144,1.383c-0.096,0.319-0.286,0.542-0.567,0.666
			c-0.283,0.123-0.668,0.02-1.16-0.307c-0.239-0.14-0.58-0.471-1.023-0.986l-1.457-1.597L267.008,80.572z"/>
		<path d="M304.899,87.163h6.353c0.487,0,0.939,0.055,1.36,0.161c0.421,0.105,0.772,0.291,1.056,0.56
			c0.279,0.269,0.468,0.581,0.563,0.936c0.098,0.355,0.148,0.977,0.148,1.857v8.439c0,0.445-0.173,0.85-0.516,1.213
			c-0.341,0.362-0.762,0.517-1.251,0.458c-0.432-0.035-0.725-0.181-0.884-0.432c-0.162-0.255-0.241-0.526-0.241-0.818v-2.248
			c-0.576,0.552-1.094,1.013-1.553,1.389c-0.456,0.372-1.127,0.775-2.015,1.203c-0.884,0.428-2.121,0.718-3.709,0.871
			c-1.77,0.174-3.404,0.084-4.903-0.274c-1.499-0.356-2.848-0.933-4.046-1.731c-1.197-0.794-2.168-1.741-2.907-2.839
			c-0.739-1.094-1.275-2.188-1.607-3.284c-0.33-1.098-0.538-2.355-0.613-3.772c-0.078-1.417-0.005-2.787,0.224-4.113
			c0.278-1.592,0.774-3.003,1.49-4.228c0.717-1.225,1.605-2.265,2.666-3.119s2.142-1.46,3.248-1.81
			c1.11-0.353,2.295-0.587,3.557-0.705c1.158-0.092,2.188-0.082,3.092,0.036c0.903,0.116,1.893,0.39,2.972,0.817
			c1.078,0.429,1.984,0.903,2.724,1.423c0.739,0.523,1.34,1.052,1.796,1.583c0.456,0.533,0.93,1.121,1.424,1.758
			c0.496,0.638,0.742,1.189,0.733,1.652c-0.01,0.463-0.237,0.853-0.695,1.169c-0.459,0.317-1.015,0.27-1.675-0.142
			c-0.197-0.105-0.456-0.36-0.786-0.765c-0.33-0.402-0.653-0.784-0.959-1.143c-0.306-0.356-0.717-0.781-1.235-1.273
			c-0.519-0.494-1.129-0.95-1.836-1.371c-0.702-0.421-1.532-0.733-2.498-0.94c-0.963-0.205-2.017-0.242-3.159-0.113
			c-1.256,0.151-2.367,0.485-3.344,1.001c-0.975,0.517-1.843,1.252-2.601,2.206c-0.757,0.955-1.314,1.918-1.669,2.892
			c-0.356,0.973-0.559,2.091-0.604,3.361c-0.047,1.266,0.011,2.325,0.179,3.177c0.182,1.031,0.532,2.044,1.059,3.042
			c0.521,0.994,1.223,1.902,2.102,2.726c0.882,0.82,1.878,1.392,2.987,1.722c1.116,0.329,2.372,0.489,3.767,0.489
			c1.121,0.014,2.08-0.098,2.881-0.332c0.8-0.234,1.689-0.729,2.662-1.485c0.979-0.757,1.59-1.352,1.824-1.785l1.053-1.704
			l-0.022-1.46c-0.011-0.631-0.131-1.044-0.358-1.239c-0.23-0.191-0.705-0.289-1.427-0.289h-4.787
			c-0.483,0.013-0.849-0.097-1.099-0.332c-0.252-0.236-0.39-0.535-0.41-0.899c-0.015-0.361,0.115-0.701,0.41-1.019
			C304.103,87.32,304.465,87.163,304.899,87.163z"/>
	</g>
</g>
</svg>
