<?xml version="1.0" encoding="utf-8"?>
<!-- Generator: Adobe Illustrator 15.0.0, SVG Export Plug-In  -->
<!DOCTYPE svg PUBLIC "-//W3C//DTD SVG 1.1//EN" "http://www.w3.org/Graphics/SVG/1.1/DTD/svg11.dtd" [
	<!ENTITY ns_flows "http://ns.adobe.com/Flows/1.0/">
]>
<svg version="1.1"
	 xmlns="http://www.w3.org/2000/svg" xmlns:xlink="http://www.w3.org/1999/xlink" xmlns:a="http://ns.adobe.com/AdobeSVGViewerExtensions/3.0/"
	 x="0px" y="0px" width="67px" height="67px" viewBox="-0.005 0 67 67" enable-background="new -0.005 0 67 67"
	 xml:space="preserve">
<defs>
</defs>
<g>
	<defs>
		<path id="SVGID_1_" d="M0,33.554c0,18.531,15.022,33.555,33.554,33.555c18.532,0,33.555-15.023,33.555-33.555
			C67.108,15.023,52.086,0,33.554,0C15.022,0,0,15.023,0,33.554"/>
	</defs>
	<clipPath id="SVGID_2_">
		<use xlink:href="#SVGID_1_"  overflow="visible"/>
	</clipPath>
	<path clip-path="url(#SVGID_2_)" fill="#D9372C" d="M67.108,33.554C67.108,15.023,52.085,0,33.554,0S0.001,15.023,0.001,33.554
		c0,18.531,15.021,33.555,33.553,33.555S67.108,52.085,67.108,33.554"/>
	<path clip-path="url(#SVGID_2_)" fill="#F2E2D5" d="M38.997,46.86c-1.383-2.007-2.197-3.961-2.145-6.439
		c0.012-0.535-0.446-0.77-0.856-0.705c-0.048-0.056-0.104-0.109-0.175-0.154c-2.086-1.328-4.78-0.992-7.006-0.197
		c-0.181,0.064-0.296,0.215-0.348,0.383c-0.265,0.041-0.488,0.268-0.404,0.629c0.681,2.912-0.356,4.846-1.706,7.301
		c-0.722,1.314-0.965,2.736-0.536,4.19c0.983,3.339,4.436,4.872,7.709,4.688c3.164-0.178,6.327-1.758,6.795-5.182
		C40.56,49.653,39.954,48.249,38.997,46.86"/>
	<path clip-path="url(#SVGID_2_)" fill="#F0CFB9" d="M44.858,26.731c0.176-1.562,0.22-3.114,0.038-4.54
		c-0.955-7.483-10.938-6.673-16.412-6.636c-3.288,0.022-5.27,1.638-6.152,4.784c-0.604,2.153-0.842,4.421-0.826,6.688
		c-0.522-0.092-1.073,0.082-1.454,0.489c-0.58,0.622-0.604,1.585-0.509,2.377c0.095,0.797,0.396,1.641,1.123,2.07
		c0.397,0.234,0.86,0.308,1.275,0.2c0.02,0.12,0.037,0.241,0.057,0.362c0.013,0.075,0.041,0.138,0.08,0.189
		c0.413,2.135,1.209,4.163,2.527,5.957c3.443,4.686,9.807,5.995,14.374,2.141c2.426-2.047,3.856-4.954,4.663-7.975
		c0.065-0.246,0.131-0.498,0.195-0.752c0.071,0.027,0.154,0.04,0.247,0.035C46.442,31.987,46.878,27.313,44.858,26.731"/>
	<path clip-path="url(#SVGID_2_)" fill="#7B4D23" d="M42.8,16.852c-2.836-2.538-6.639-3.315-10.375-3.42
		c-3.414-0.096-7.031,0.819-9.388,3.434c-2.5,2.773-3.205,6.73-2.775,10.339c0.01,0.084,0.063,0.139,0.127,0.163
		c0.024,0.05,0.074,0.084,0.139,0.061c0.214-0.078,0.428-0.121,0.628-0.111c0.239,0.139,0.497,0.25,0.731,0.432
		c0.004,0.006,0.009,0.01,0.013,0.016c0.285,0.469,0.209,1.038,0.185,1.56c-0.002,0.057,0.017,0.098,0.044,0.129
		c0.008,0.046,0.033,0.089,0.089,0.099c0.496,0.09,1.059,0.068,1.526-0.138c0.074-0.032,0.1-0.098,0.094-0.165
		c0.032-0.028,0.053-0.069,0.051-0.128c-0.091-2.723-0.879-7.448,2.897-7.984c2.407-0.341,4.43,2.112,6.92,1.829
		c2.258-0.257,3.818-2.376,6.135-2.325c4.384,0.097,3.011,6.243,2.304,8.815c-0.016,0.057-0.015,0.108-0.005,0.155
		c-0.019,0.008-0.036,0.017-0.055,0.024c-0.093,0.042-0.031,0.159,0.046,0.168c0.247,0.032,0.535,0.219,0.786,0.138
		c0.003-0.001,0.004-0.003,0.007-0.004c0.176-0.003,0.352-0.007,0.527-0.011c0.121-0.003,0.232-0.103,0.229-0.229
		c-0.021-0.619-0.021-1.287,0.145-1.889c0.059-0.215,0.159-0.577,0.364-0.707c0.464-0.296,0.935,0.026,1.331,0.267
		c0.058,0.035,0.112,0.02,0.151-0.014c0.136,0.038,0.3-0.033,0.305-0.223C46.063,23.612,45.554,19.317,42.8,16.852"/>
	<path clip-path="url(#SVGID_2_)" fill="#F6F5F5" d="M40.234,48.142c0.006-0.031,0.009-0.064,0.001-0.098
		c-0.071-0.334-0.341-0.629-0.534-0.904c-0.206-0.293-0.438-0.542-0.704-0.781c-0.043-0.039-0.104-0.047-0.157-0.034
		c-0.063-0.184-0.29-0.304-0.456-0.116c-0.695,0.779-1.558,1.24-2.514,1.566c-0.064-0.105-0.182-0.17-0.337-0.111
		c-0.771,0.299-1.556,0.475-2.387,0.476c-0.662,0.001-1.307-0.222-1.959-0.128c-0.007,0.002-0.013,0.006-0.019,0.008
		c-0.538-0.094-1.073-0.211-1.578-0.413c-0.732-0.292-1.27-0.827-1.949-1.179c0.048-0.238-0.296-0.388-0.465-0.164
		c-3.061,4.045-3.896,9.607-2.446,14.46c1.365,4.563,5.135,8.541,10.235,7.978c4.798-0.529,7.302-4.616,7.93-9.041
		C43.477,55.569,42.608,51.442,40.234,48.142"/>
	<path clip-path="url(#SVGID_2_)" fill="#ECECEB" d="M30.972,47.749c-0.802-0.106-2.979-0.682-3.432-1.645
		c-0.006-0.045-0.021-0.087-0.042-0.125c-0.009-0.028-0.022-0.055-0.028-0.084c-0.022-0.121-0.146-0.146-0.238-0.102
		c-0.078-0.006-0.158,0.025-0.227,0.108c-0.999,1.229-1.751,1.907-0.822,3.437c0.856,1.409,2.043,2.563,3.388,3.502
		c0.197,0.139,0.467-0.047,0.467-0.268c-0.003-1.582,0.385-3.038,1.173-4.408C31.325,47.966,31.172,47.776,30.972,47.749"/>
	<path clip-path="url(#SVGID_2_)" fill="#ECECEB" d="M39.147,45.942c-0.024-0.02-0.05-0.028-0.075-0.041
		c-0.065-0.191-0.321-0.327-0.515-0.143c-0.861,0.816-1.866,1.364-2.996,1.717c-0.168,0.054-0.198,0.209-0.142,0.326
		c-0.014,0.046-0.011,0.098,0.021,0.15c0.699,1.197,1.12,2.36,0.845,3.756c-0.04,0.207,0.142,0.473,0.38,0.379
		C38.784,51.263,41.488,47.916,39.147,45.942"/>
	<path clip-path="url(#SVGID_2_)" fill="#575857" d="M37.481,64.358c-0.955-4.477-1.668-9.098-3.018-13.475
		c0.077-0.01,0.151-0.054,0.185-0.146c0.292-0.814,0.66-1.854,0.518-2.747c0.133-0.126,0.023-0.407-0.202-0.376
		c-0.032-0.008-0.066-0.009-0.104,0c-0.169,0.041-0.338,0.066-0.509,0.092c-0.323,0.035-0.645,0.051-0.967,0.051
		c-0.335-0.01-0.671-0.04-1.003-0.106c-0.089-0.019-0.158,0.017-0.202,0.07c-0.126-0.006-0.252-0.011-0.379-0.016
		c-0.068-0.003-0.098,0.044-0.098,0.095c-0.044,0.037-0.07,0.098-0.057,0.164c0.097,0.488,0.275,0.946,0.442,1.412
		c0.147,0.416,0.257,0.873,0.493,1.246c0.013,0.021,0.03,0.036,0.051,0.05c0.001,0.036,0.018,0.071,0.06,0.097
		c0.01,0.006,0.019,0.013,0.028,0.02c-0.007,0.012-0.015,0.024-0.018,0.041c-0.948,4.34-1.168,8.938-1.669,13.35
		c-0.014,0.115,0.048,0.184,0.13,0.209c0.437,3.107,5.461,3.445,6.186,0.313c0.003-0.012,0-0.021,0.002-0.031
		C37.445,64.607,37.511,64.499,37.481,64.358"/>
	<path clip-path="url(#SVGID_2_)" fill="#3C3C3C" d="M54.158,70.959c-0.009-0.046-0.018-0.094-0.026-0.14
		c-0.002-0.021-0.005-0.041-0.011-0.061c-0.955-5.055-2.045-10.166-4.1-14.902c-0.795-1.83-1.656-3.79-3.298-5.021
		c-1.811-1.358-4.29-2.141-6.408-2.871c-0.066-0.023-0.126,0.004-0.165,0.051c-0.056-0.021-0.128-0.004-0.151,0.064
		c-0.651,1.891-2.065,3.396-3.249,4.979c-1.146,1.531-2.304,3.055-3.433,4.6c-2.608-2.917-5.637-5.775-7.529-9.174
		c-0.009-0.025-0.021-0.049-0.04-0.068c-0.014-0.025-0.029-0.051-0.043-0.076c-0.033-0.061-0.102-0.032-0.118,0.02
		c-0.019,0.003-0.039,0.006-0.06,0.016c-3.8,1.708-7.683,3.85-9.111,7.971c-0.774,2.23-1.055,4.636-1.46,6.951
		c-0.452,2.589-0.904,5.179-1.357,7.768c-0.219-0.144-0.439-0.281-0.652-0.434c-0.167-0.117-0.364,0.145-0.217,0.281
		c0.275,0.258,0.563,0.5,0.857,0.733c0.033,0.05,0.082,0.085,0.137,0.11c5.202,4.023,13.022,4.414,19.288,4.359
		c3.983-0.034,7.97-0.457,11.875-1.242c2.968-0.596,6.828-1.111,8.934-3.535C54.001,71.345,54.202,71.193,54.158,70.959"/>
	<path clip-path="url(#SVGID_2_)" fill="#1D1D1B" d="M40.455,48.009c-0.057-0.215-0.398-0.122-0.334,0.094
		c0.535,1.796,0.594,3.852,1.271,5.584c-0.011,0.002-0.02,0.001-0.03,0.004c-1.013,0.35-2.06,0.574-3.076,0.904
		c-0.111-0.042-0.254,0.01-0.246,0.164c0.074,1.572,0.128,3.189,0.345,4.748c-0.027,0.012-0.053,0.03-0.07,0.061
		c-1.527,2.649-2.924,5.438-4.354,8.152c-0.117-3.365-0.304-6.73-0.511-10.062c-0.01-0.165-0.262-0.169-0.26,0
		c0.037,3.276,0.079,6.575,0.167,9.871c-1.59-2.962-3.425-6.026-5.605-8.551c0.316-1.515,0.397-3.317,0.127-4.832
		c-0.01-0.059-0.052-0.077-0.095-0.074c-0.025-0.05-0.071-0.091-0.14-0.099c-0.646-0.08-1.289-0.141-1.926-0.281
		c-0.444-0.099-0.878-0.238-1.328-0.301c0.363-0.941,0.612-1.939,0.894-2.906c0.163-0.563,0.632-1.437,0.429-2.02
		c-0.043-0.126-0.219-0.101-0.229,0.031c-0.063,0.781-0.501,1.67-0.728,2.428c-0.251,0.838-0.539,1.679-0.708,2.537
		c-0.019,0.098,0.037,0.161,0.106,0.178c0.98,0.525,2.39,0.641,3.489,0.673c0.002,0.001,0.004-0.001,0.006-0.001
		c-0.187,1.536-0.244,3.187-0.248,4.728C27.4,59.13,27.47,59.187,27.545,59.2c1.899,3.1,3.989,6.059,5.828,9.205
		c0.003,0.005,0.007,0.007,0.01,0.011c0.08,2.719,0.195,5.434,0.376,8.131c0.014,0.198,0.311,0.203,0.313,0
		c0.04-2.733-0.003-5.485-0.092-8.24c0.003-0.004,0.007-0.005,0.01-0.009c1.756-2.657,3.461-5.636,4.627-8.604
		c0.009-0.024,0.011-0.047,0.009-0.068c0.025-0.023,0.043-0.055,0.044-0.094c0.052-1.541-0.099-3.135-0.247-4.672
		c1.038-0.128,2.054-0.494,3.02-0.879c0.083-0.033,0.11-0.113,0.097-0.184c0.006-0.009,0.012-0.018,0.014-0.031
		C41.747,51.917,40.921,49.778,40.455,48.009"/>
</g>
</svg>
