<?xml version="1.0" encoding="utf-8"?>
<!-- Generator: Adobe Illustrator 15.0.0, SVG Export Plug-In  -->
<!DOCTYPE svg PUBLIC "-//W3C//DTD SVG 1.1//EN" "http://www.w3.org/Graphics/SVG/1.1/DTD/svg11.dtd" [
	<!ENTITY ns_flows "http://ns.adobe.com/Flows/1.0/">
]>
<svg version="1.1"
	 xmlns="http://www.w3.org/2000/svg" xmlns:xlink="http://www.w3.org/1999/xlink" xmlns:a="http://ns.adobe.com/AdobeSVGViewerExtensions/3.0/"
	 x="0px" y="0px" width="180px" height="180px" viewBox="-0.573 -0.574 180 180" enable-background="new -0.573 -0.574 180 180"
	 xml:space="preserve">
<defs>
</defs>
<g>
	<defs>
		<path id="SVGID_12_" d="M0.001,89.713c0,49.547,40.166,89.713,89.712,89.713c49.549,0,89.714-40.166,89.714-89.713
			S139.262,0,89.713,0C40.167,0,0.001,40.166,0.001,89.713"/>
	</defs>
	<clipPath id="SVGID_13_">
		<use xlink:href="#SVGID_12_"  overflow="visible"/>
	</clipPath>
	<path clip-path="url(#SVGID_13_)" fill="#2567A3" d="M179.427,89.713C179.427,40.166,139.262,0,89.714,0S0,40.166,0,89.713
		c0,49.548,40.166,89.714,89.714,89.714S179.427,139.261,179.427,89.713"/>
</g>
<g>
	<defs>
		<path id="SVGID_11_" d="M0.001,89.713c0,49.547,40.166,89.713,89.712,89.713c49.549,0,89.714-40.166,89.714-89.713
			S139.262,0,89.713,0C40.167,0,0.001,40.166,0.001,89.713"/>
	</defs>
	<clipPath id="SVGID_14_">
		<use xlink:href="#SVGID_11_"  overflow="visible"/>
	</clipPath>
	<path clip-path="url(#SVGID_14_)" fill="#2567A3" d="M89.714,0C40.167,0,0,40.166,0,89.713"/>
</g>
<g>
	<defs>
		<path id="SVGID_10_" d="M0.001,89.713c0,49.547,40.166,89.713,89.712,89.713c49.549,0,89.714-40.166,89.714-89.713
			S139.262,0,89.713,0C40.167,0,0.001,40.166,0.001,89.713"/>
	</defs>
	<clipPath id="SVGID_15_">
		<use xlink:href="#SVGID_10_"  overflow="visible"/>
	</clipPath>
	<path clip-path="url(#SVGID_15_)" fill="#F1E1D4" d="M105.26,124.132c-3.695-5.364-5.873-10.59-5.73-17.219
		c0.031-1.431-1.195-2.058-2.293-1.883c-0.127-0.15-0.274-0.292-0.467-0.415c-5.576-3.548-12.781-2.653-18.73-0.526
		c-0.483,0.175-0.793,0.573-0.932,1.022c-0.707,0.111-1.305,0.718-1.079,1.684c1.82,7.784-0.953,12.957-4.561,19.52
		c-1.932,3.514-2.581,7.317-1.436,11.203c2.631,8.93,11.862,13.028,20.611,12.539c8.463-0.476,16.92-4.701,18.168-13.856
		C109.438,131.602,107.818,127.848,105.26,124.132"/>
</g>
<g>
	<defs>
		<path id="SVGID_9_" d="M0.001,89.713c0,49.547,40.166,89.713,89.712,89.713c49.549,0,89.714-40.166,89.714-89.713
			S139.262,0,89.713,0C40.167,0,0.001,40.166,0.001,89.713"/>
	</defs>
	<clipPath id="SVGID_16_">
		<use xlink:href="#SVGID_9_"  overflow="visible"/>
	</clipPath>
	<path clip-path="url(#SVGID_16_)" fill="#EDCDB8" d="M120.93,70.312c0.473-4.176,0.59-8.325,0.104-12.139
		C118.479,38.165,91.788,40.33,77.152,40.43c-8.791,0.06-14.089,4.379-16.449,12.791c-1.615,5.756-2.251,11.822-2.208,17.881
		c-1.397-0.246-2.871,0.219-3.889,1.308c-1.552,1.661-1.613,4.238-1.361,6.357c0.254,2.13,1.059,4.388,3.004,5.535
		c1.062,0.626,2.298,0.822,3.41,0.533c0.05,0.321,0.098,0.646,0.151,0.968c0.033,0.201,0.11,0.368,0.216,0.505
		c1.102,5.709,3.23,11.132,6.754,15.925c9.209,12.528,26.22,16.032,38.434,5.728c6.484-5.474,10.312-13.245,12.468-21.324
		c0.176-0.657,0.35-1.33,0.521-2.011c0.191,0.07,0.411,0.106,0.66,0.093C125.167,84.365,126.332,71.868,120.93,70.312"/>
</g>
<g>
	<defs>
		<path id="SVGID_8_" d="M0.001,89.713c0,49.547,40.166,89.713,89.712,89.713c49.549,0,89.714-40.166,89.714-89.713
			S139.262,0,89.713,0C40.167,0,0.001,40.166,0.001,89.713"/>
	</defs>
	<clipPath id="SVGID_17_">
		<use xlink:href="#SVGID_8_"  overflow="visible"/>
	</clipPath>
	<path clip-path="url(#SVGID_17_)" fill="#868687" d="M123.686,71.566c0.021-0.051,0.037-0.104,0.041-0.166
		c0.582-7.864,0.971-16.176-2.264-23.57c-2.872-6.567-8.339-10.331-14.857-12.86c-8.008-3.107-17.368-5.063-25.987-4.146
		c-5.737,0.61-12.64,3.275-13.904,9.5c-14.205-0.911-12.154,19.214-11.86,29.416c-0.089,0.438-0.171,0.876-0.235,1.316
		c-0.036,0.246,0.069,0.527,0.264,0.669c-0.001,0.155,0,0.317-0.003,0.464c0,0.002,0.002,0.003,0.002,0.006
		c-0.025,0.034-0.058,0.06-0.082,0.096c-0.135,0.197,0.157,0.401,0.321,0.248c1.498-1.403,3.576-0.513,4.386,1.145
		c0.797,1.628,0.307,3.296,0.433,4.998c0.012,0.167,0.146,0.246,0.277,0.239c0.054,0.124,0.186,0.219,0.348,0.189
		c0.448-0.08,0.898-0.152,1.352-0.187c0.383-0.028,0.765,0.021,1.112-0.16c0.118-0.061,0.159-0.171,0.149-0.281
		c0.136,0.059,0.31,0.007,0.321-0.194c0.245-4.374,3.751-6.425,6.234-9.491c1.381-1.706,2.532-3.587,3.421-5.595
		c0.835-1.887,1.422-3.851,1.778-5.854c1.953,3.956,7.604,6.374,11.497,7.895c4.35,1.701,8.663,2.478,13.314,2.604
		c4.081,0.111,8.737,0.21,12.261,2.128c0.021,0.015,0.034,0.034,0.059,0.047c0.135,0.072,0.268,0.144,0.398,0.214
		c1.537,0.937,2.833,2.25,3.723,4.125c0.066,0.506,0.118,1.015,0.166,1.521c0.026,0.279,0.016,0.564,0.053,0.832
		c-0.125,0.146-0.106,0.424,0.125,0.474c0.023,0.005,0.05,0.012,0.072,0.018c0.025,0.035,0.037,0.076,0.07,0.109
		c0.102,0.105,0.275,0.104,0.389,0.012c0.564,0.155,1.215,0.325,1.674,0.105c0.043-0.021,0.076-0.055,0.104-0.095
		c0.182,0.141,0.502,0.05,0.502-0.231c0.003-1.396-0.035-2.854,0.48-4.178c0.255-0.653,0.688-1.348,1.386-1.537
		c0.854-0.23,1.394,0.362,1.702,1.061c0.062,0.14,0.275,0.091,0.313-0.041c0.02-0.067,0.026-0.13,0.034-0.191
		c0.072,0.049,0.144,0.099,0.214,0.147c0.415,0.289,0.813-0.394,0.396-0.678L123.686,71.566z"/>
</g>
<g>
	<defs>
		<path id="SVGID_7_" d="M0.001,89.713c0,49.547,40.166,89.713,89.712,89.713c49.549,0,89.714-40.166,89.714-89.713
			S139.262,0,89.713,0C40.167,0,0.001,40.166,0.001,89.713"/>
	</defs>
	<clipPath id="SVGID_18_">
		<use xlink:href="#SVGID_7_"  overflow="visible"/>
	</clipPath>
	<path clip-path="url(#SVGID_18_)" fill="none" d="M85.008,126.986c0.013,0,0.013-0.021,0-0.021"/>
</g>
<g>
	<defs>
		<path id="SVGID_6_" d="M0.001,89.713c0,49.547,40.166,89.713,89.712,89.713c49.549,0,89.714-40.166,89.714-89.713
			S139.262,0,89.713,0C40.167,0,0.001,40.166,0.001,89.713"/>
	</defs>
	<clipPath id="SVGID_19_">
		<use xlink:href="#SVGID_6_"  overflow="visible"/>
	</clipPath>
	<path clip-path="url(#SVGID_19_)" fill="#F6F5F5" d="M107.574,127.561c0.016-0.086,0.023-0.174,0.004-0.264
		c-0.191-0.893-0.911-1.683-1.428-2.42c-0.553-0.783-1.172-1.445-1.885-2.087c-0.115-0.104-0.275-0.126-0.418-0.092
		c-0.171-0.49-0.777-0.812-1.224-0.313c-1.856,2.083-4.163,3.315-6.72,4.19c-0.172-0.285-0.486-0.456-0.901-0.296
		c-2.063,0.795-4.157,1.266-6.382,1.27c-1.768,0.002-3.492-0.593-5.235-0.342c-0.02,0.003-0.035,0.015-0.053,0.021
		c-1.437-0.25-2.868-0.565-4.218-1.104c-1.958-0.78-3.394-2.212-5.211-3.149c0.128-0.639-0.791-1.039-1.243-0.441
		c-8.184,10.816-10.419,25.691-6.54,38.662c3.649,12.203,13.729,22.837,27.367,21.33c12.826-1.414,19.521-12.342,21.201-24.172
		C116.242,147.416,113.922,136.385,107.574,127.561"/>
</g>
<g>
	<defs>
		<path id="SVGID_5_" d="M0.001,89.713c0,49.547,40.166,89.713,89.712,89.713c49.549,0,89.714-40.166,89.714-89.713
			S139.262,0,89.713,0C40.167,0,0.001,40.166,0.001,89.713"/>
	</defs>
	<clipPath id="SVGID_20_">
		<use xlink:href="#SVGID_5_"  overflow="visible"/>
	</clipPath>
	<path clip-path="url(#SVGID_20_)" fill="#ECECEA" d="M82.809,126.509c-2.143-0.286-7.966-1.821-9.175-4.399
		c-0.016-0.117-0.057-0.229-0.114-0.334c-0.022-0.073-0.057-0.146-0.072-0.221c-0.062-0.326-0.395-0.395-0.638-0.275
		c-0.209-0.012-0.425,0.068-0.607,0.291c-2.671,3.289-4.681,5.102-2.197,9.189c2.288,3.768,5.462,6.854,9.056,9.365
		c0.528,0.368,1.25-0.126,1.249-0.718c-0.008-4.229,1.027-8.124,3.136-11.788C83.754,127.086,83.345,126.581,82.809,126.509"/>
</g>
<g>
	<defs>
		<path id="SVGID_4_" d="M0.001,89.713c0,49.547,40.166,89.713,89.712,89.713c49.549,0,89.714-40.166,89.714-89.713
			S139.262,0,89.713,0C40.167,0,0.001,40.166,0.001,89.713"/>
	</defs>
	<clipPath id="SVGID_21_">
		<use xlink:href="#SVGID_4_"  overflow="visible"/>
	</clipPath>
	<path clip-path="url(#SVGID_21_)" fill="#ECECEA" d="M104.668,121.678c-0.063-0.054-0.134-0.074-0.2-0.109
		c-0.176-0.514-0.856-0.875-1.375-0.383c-2.304,2.187-4.989,3.648-8.012,4.595c-0.448,0.14-0.528,0.557-0.378,0.87
		c-0.037,0.123-0.029,0.261,0.053,0.401c1.871,3.202,2.994,6.312,2.262,10.041c-0.108,0.552,0.379,1.263,1.014,1.015
		C103.695,135.9,110.93,126.954,104.668,121.678"/>
</g>
<g>
	<defs>
		<path id="SVGID_3_" d="M0.001,89.713c0,49.547,40.166,89.713,89.712,89.713c49.549,0,89.714-40.166,89.714-89.713
			S139.262,0,89.713,0C40.167,0,0.001,40.166,0.001,89.713"/>
	</defs>
	<clipPath id="SVGID_22_">
		<use xlink:href="#SVGID_3_"  overflow="visible"/>
	</clipPath>
	<path clip-path="url(#SVGID_22_)" fill="#432918" d="M100.213,170.915c-2.552-11.97-4.459-24.325-8.068-36.026
		c0.207-0.023,0.404-0.143,0.494-0.391c0.782-2.18,1.766-4.956,1.385-7.346c0.355-0.336,0.063-1.09-0.539-1.004
		c-0.086-0.021-0.178-0.024-0.281,0c-0.449,0.105-0.903,0.179-1.357,0.244c-0.865,0.096-1.725,0.137-2.585,0.137
		c-0.898-0.025-1.795-0.107-2.683-0.286c-0.238-0.048-0.423,0.045-0.542,0.188c-0.335-0.017-0.672-0.029-1.011-0.043
		c-0.183-0.008-0.263,0.116-0.263,0.252c-0.115,0.104-0.186,0.264-0.15,0.441c0.258,1.305,0.737,2.529,1.182,3.777
		c0.396,1.108,0.686,2.332,1.319,3.328c0.035,0.056,0.081,0.098,0.134,0.133c0.003,0.096,0.048,0.191,0.159,0.259
		c0.027,0.017,0.052,0.034,0.078,0.051c-0.02,0.034-0.04,0.068-0.049,0.113c-2.535,11.604-3.122,23.897-4.462,35.69
		c-0.035,0.309,0.128,0.493,0.347,0.563c1.168,8.306,14.601,9.21,16.54,0.834c0.007-0.029,0-0.057,0.004-0.085
		C100.119,171.583,100.293,171.292,100.213,170.915"/>
</g>
<g>
	<defs>
		<path id="SVGID_2_" d="M0.001,89.713c0,49.547,40.166,89.713,89.712,89.713c49.549,0,89.714-40.166,89.714-89.713
			S139.262,0,89.713,0C40.167,0,0.001,40.166,0.001,89.713"/>
	</defs>
	<clipPath id="SVGID_23_">
		<use xlink:href="#SVGID_2_"  overflow="visible"/>
	</clipPath>
	<path clip-path="url(#SVGID_23_)" fill="#653D1C" d="M144.805,188.563c-0.023-0.125-0.049-0.248-0.072-0.373
		c-0.006-0.057-0.012-0.108-0.03-0.162c-2.552-13.514-5.466-27.18-10.96-39.842c-2.124-4.896-4.428-10.134-8.815-13.428
		c-4.842-3.633-11.471-5.722-17.134-7.677c-0.18-0.063-0.338,0.01-0.441,0.135c-0.148-0.055-0.343-0.008-0.406,0.173
		c-1.74,5.059-5.521,9.081-8.685,13.312c-3.063,4.096-6.161,8.17-9.181,12.3c-6.972-7.8-15.069-15.443-20.13-24.527
		c-0.021-0.07-0.057-0.132-0.105-0.185c-0.038-0.069-0.079-0.136-0.116-0.204c-0.088-0.16-0.271-0.085-0.316,0.053
		c-0.051,0.008-0.103,0.016-0.158,0.041c-10.159,4.568-20.543,10.295-24.363,21.313c-2.068,5.964-2.819,12.394-3.902,18.585
		c-1.21,6.923-2.42,13.845-3.631,20.767c-0.584-0.381-1.173-0.751-1.745-1.157c-0.444-0.315-0.973,0.383-0.58,0.75
		c0.738,0.689,1.506,1.338,2.293,1.961c0.092,0.136,0.222,0.229,0.366,0.297c13.91,10.758,34.818,11.801,51.57,11.654
		c10.652-0.092,21.309-1.223,31.752-3.32c7.934-1.594,18.256-2.973,23.887-9.45C144.384,189.595,144.922,189.189,144.805,188.563"/>
</g>
<g>
	<defs>
		<path id="SVGID_1_" d="M0.001,89.713c0,49.547,40.166,89.713,89.712,89.713c49.549,0,89.714-40.166,89.714-89.713
			S139.262,0,89.713,0C40.167,0,0.001,40.166,0.001,89.713"/>
	</defs>
	<clipPath id="SVGID_24_">
		<use xlink:href="#SVGID_1_"  overflow="visible"/>
	</clipPath>
	<path clip-path="url(#SVGID_24_)" fill="#432918" d="M108.165,127.204c-0.151-0.576-1.063-0.327-0.896,0.246
		c1.433,4.804,1.59,10.302,3.397,14.935c-0.026,0.004-0.052,0.001-0.081,0.012c-2.707,0.935-5.505,1.535-8.223,2.416
		c-0.297-0.112-0.68,0.025-0.66,0.438c0.201,4.201,0.344,8.524,0.923,12.692c-0.074,0.033-0.142,0.08-0.188,0.162
		c-4.082,7.086-7.815,14.537-11.64,21.797c-0.313-8.996-0.813-17.992-1.365-26.9c-0.027-0.441-0.699-0.452-0.693,0
		c0.101,8.762,0.209,17.58,0.445,26.395c-4.251-7.922-9.156-16.112-14.989-22.862c0.846-4.052,1.065-8.87,0.341-12.92
		c-0.028-0.157-0.139-0.206-0.255-0.199c-0.067-0.132-0.188-0.241-0.372-0.265c-1.727-0.213-3.447-0.375-5.149-0.752
		c-1.187-0.263-2.349-0.638-3.552-0.801c0.973-2.519,1.639-5.188,2.39-7.774c0.436-1.501,1.688-3.841,1.147-5.396
		c-0.117-0.338-0.585-0.271-0.613,0.083c-0.164,2.09-1.337,4.465-1.943,6.489c-0.671,2.242-1.443,4.487-1.894,6.784
		c-0.05,0.259,0.099,0.43,0.283,0.474c2.621,1.403,6.389,1.716,9.331,1.802c0.006,0,0.01-0.002,0.015-0.002
		c-0.5,4.104-0.653,8.518-0.664,12.639c-0.001,0.242,0.184,0.395,0.386,0.431c5.076,8.286,10.666,16.2,15.583,24.612
		c0.008,0.012,0.018,0.017,0.024,0.027c0.216,7.269,0.524,14.527,1.006,21.738c0.036,0.532,0.829,0.543,0.836,0
		c0.106-7.307-0.008-14.667-0.246-22.029c0.01-0.012,0.02-0.017,0.026-0.027c4.694-7.102,9.254-15.065,12.371-22.999
		c0.024-0.066,0.03-0.128,0.022-0.185c0.067-0.063,0.113-0.147,0.117-0.25c0.139-4.123-0.262-8.384-0.662-12.492
		c2.777-0.342,5.492-1.321,8.074-2.35c0.223-0.089,0.295-0.305,0.26-0.49c0.017-0.024,0.032-0.049,0.037-0.082
		C111.619,137.652,109.409,131.934,108.165,127.204"/>
</g>
</svg>
